<mxfile host="app.diagrams.net" agent="Mozilla/5.0 (Windows NT 10.0; Win64; x64) AppleWebKit/537.36 (KHTML, like Gecko) Chrome/134.0.0.0 Safari/537.36" version="26.2.1">
  <diagram name="Page-1" id="_qokRrDUagfGyIDq5mhj">
    <mxGraphModel dx="1109" dy="579" grid="1" gridSize="10" guides="1" tooltips="1" connect="1" arrows="1" fold="1" page="1" pageScale="1" pageWidth="1100" pageHeight="850" math="0" shadow="0">
      <root>
        <mxCell id="0" />
        <mxCell id="1" parent="0" />
        <mxCell id="AzC5nxEhTgzPdBHv2DmU-1" value="" style="sketch=0;outlineConnect=0;fontColor=#232F3E;gradientColor=none;fillColor=#E7157B;strokeColor=none;dashed=0;verticalLabelPosition=bottom;verticalAlign=top;align=center;html=1;fontSize=12;fontStyle=0;aspect=fixed;pointerEvents=1;shape=mxgraph.aws4.organizations_account;" vertex="1" parent="1">
          <mxGeometry x="161.03" y="266" width="37.95" height="40" as="geometry" />
        </mxCell>
        <mxCell id="AzC5nxEhTgzPdBHv2DmU-2" value="DevOps Account" style="text;strokeColor=none;align=center;fillColor=none;html=1;verticalAlign=middle;whiteSpace=wrap;rounded=0;" vertex="1" parent="1">
          <mxGeometry x="150.00000000000003" y="306" width="60" height="30" as="geometry" />
        </mxCell>
        <mxCell id="AzC5nxEhTgzPdBHv2DmU-3" value="" style="whiteSpace=wrap;html=1;aspect=fixed;" vertex="1" parent="1">
          <mxGeometry x="40" y="346" width="280" height="280" as="geometry" />
        </mxCell>
        <mxCell id="AzC5nxEhTgzPdBHv2DmU-4" value="Dev Pipelines" style="sketch=0;outlineConnect=0;fontColor=#232F3E;gradientColor=none;strokeColor=#ffffff;fillColor=#232F3E;dashed=0;verticalLabelPosition=middle;verticalAlign=bottom;align=center;html=1;whiteSpace=wrap;fontSize=10;fontStyle=1;spacing=3;shape=mxgraph.aws4.productIcon;prIcon=mxgraph.aws4.codepipeline;" vertex="1" parent="1">
          <mxGeometry x="60" y="356" width="50" height="80" as="geometry" />
        </mxCell>
        <mxCell id="AzC5nxEhTgzPdBHv2DmU-5" value="QA Pipelines" style="sketch=0;outlineConnect=0;fontColor=#232F3E;gradientColor=none;strokeColor=#ffffff;fillColor=#232F3E;dashed=0;verticalLabelPosition=middle;verticalAlign=bottom;align=center;html=1;whiteSpace=wrap;fontSize=10;fontStyle=1;spacing=3;shape=mxgraph.aws4.productIcon;prIcon=mxgraph.aws4.codepipeline;" vertex="1" parent="1">
          <mxGeometry x="60" y="446" width="50" height="80" as="geometry" />
        </mxCell>
        <mxCell id="AzC5nxEhTgzPdBHv2DmU-6" value="Prod Pipelines" style="sketch=0;outlineConnect=0;fontColor=#232F3E;gradientColor=none;strokeColor=#ffffff;fillColor=#232F3E;dashed=0;verticalLabelPosition=middle;verticalAlign=bottom;align=center;html=1;whiteSpace=wrap;fontSize=10;fontStyle=1;spacing=3;shape=mxgraph.aws4.productIcon;prIcon=mxgraph.aws4.codepipeline;" vertex="1" parent="1">
          <mxGeometry x="60" y="536" width="50" height="80" as="geometry" />
        </mxCell>
        <mxCell id="AzC5nxEhTgzPdBHv2DmU-8" value="3 Pipelines for each service" style="rounded=1;whiteSpace=wrap;html=1;" vertex="1" parent="1">
          <mxGeometry x="150" y="356" width="131.03" height="70" as="geometry" />
        </mxCell>
        <mxCell id="AzC5nxEhTgzPdBHv2DmU-9" value="3 Pipelines for each service" style="rounded=1;whiteSpace=wrap;html=1;" vertex="1" parent="1">
          <mxGeometry x="150" y="446" width="131.03" height="70" as="geometry" />
        </mxCell>
        <mxCell id="AzC5nxEhTgzPdBHv2DmU-10" value="3 Pipelines for each service" style="rounded=1;whiteSpace=wrap;html=1;" vertex="1" parent="1">
          <mxGeometry x="150" y="536" width="131.03" height="70" as="geometry" />
        </mxCell>
        <mxCell id="AzC5nxEhTgzPdBHv2DmU-13" value="" style="whiteSpace=wrap;html=1;aspect=fixed;" vertex="1" parent="1">
          <mxGeometry x="760" y="140.5" width="160" height="160" as="geometry" />
        </mxCell>
        <mxCell id="AzC5nxEhTgzPdBHv2DmU-14" value="" style="sketch=0;outlineConnect=0;fontColor=#232F3E;gradientColor=none;fillColor=#E7157B;strokeColor=none;dashed=0;verticalLabelPosition=bottom;verticalAlign=top;align=center;html=1;fontSize=12;fontStyle=0;aspect=fixed;pointerEvents=1;shape=mxgraph.aws4.organizations_account;" vertex="1" parent="1">
          <mxGeometry x="825.01" y="78.9" width="29.98" height="31.6" as="geometry" />
        </mxCell>
        <mxCell id="AzC5nxEhTgzPdBHv2DmU-15" value="Dev Account" style="text;strokeColor=none;align=center;fillColor=none;html=1;verticalAlign=middle;whiteSpace=wrap;rounded=0;" vertex="1" parent="1">
          <mxGeometry x="817.5" y="110.5" width="45" height="20" as="geometry" />
        </mxCell>
        <mxCell id="AzC5nxEhTgzPdBHv2DmU-22" value="" style="sketch=0;points=[[0,0,0],[0.25,0,0],[0.5,0,0],[0.75,0,0],[1,0,0],[0,1,0],[0.25,1,0],[0.5,1,0],[0.75,1,0],[1,1,0],[0,0.25,0],[0,0.5,0],[0,0.75,0],[1,0.25,0],[1,0.5,0],[1,0.75,0]];outlineConnect=0;fontColor=#232F3E;fillColor=#ED7100;strokeColor=#ffffff;dashed=0;verticalLabelPosition=bottom;verticalAlign=top;align=center;html=1;fontSize=12;fontStyle=0;aspect=fixed;shape=mxgraph.aws4.resourceIcon;resIcon=mxgraph.aws4.ecs;" vertex="1" parent="1">
          <mxGeometry x="880.5" y="150.5" width="31" height="31" as="geometry" />
        </mxCell>
        <mxCell id="AzC5nxEhTgzPdBHv2DmU-26" value="ECS" style="text;html=1;align=center;verticalAlign=middle;whiteSpace=wrap;rounded=0;" vertex="1" parent="1">
          <mxGeometry x="875.5" y="180" width="41" height="19" as="geometry" />
        </mxCell>
        <mxCell id="AzC5nxEhTgzPdBHv2DmU-31" value="" style="sketch=0;points=[[0,0,0],[0.25,0,0],[0.5,0,0],[0.75,0,0],[1,0,0],[0,1,0],[0.25,1,0],[0.5,1,0],[0.75,1,0],[1,1,0],[0,0.25,0],[0,0.5,0],[0,0.75,0],[1,0.25,0],[1,0.5,0],[1,0.75,0]];outlineConnect=0;fontColor=#232F3E;fillColor=#ED7100;strokeColor=#ffffff;dashed=0;verticalLabelPosition=bottom;verticalAlign=top;align=center;html=1;fontSize=12;fontStyle=0;aspect=fixed;shape=mxgraph.aws4.resourceIcon;resIcon=mxgraph.aws4.ecr;" vertex="1" parent="1">
          <mxGeometry x="771" y="150.5" width="29" height="29" as="geometry" />
        </mxCell>
        <mxCell id="AzC5nxEhTgzPdBHv2DmU-32" value="ECR" style="text;html=1;align=center;verticalAlign=middle;whiteSpace=wrap;rounded=0;" vertex="1" parent="1">
          <mxGeometry x="760" y="179.5" width="51" height="20" as="geometry" />
        </mxCell>
        <mxCell id="AzC5nxEhTgzPdBHv2DmU-37" value="" style="sketch=0;points=[[0,0,0],[0.25,0,0],[0.5,0,0],[0.75,0,0],[1,0,0],[0,1,0],[0.25,1,0],[0.5,1,0],[0.75,1,0],[1,1,0],[0,0.25,0],[0,0.5,0],[0,0.75,0],[1,0.25,0],[1,0.5,0],[1,0.75,0]];outlineConnect=0;fontColor=#232F3E;fillColor=#ED7100;strokeColor=#ffffff;dashed=0;verticalLabelPosition=bottom;verticalAlign=top;align=center;html=1;fontSize=12;fontStyle=0;aspect=fixed;shape=mxgraph.aws4.resourceIcon;resIcon=mxgraph.aws4.ecr;" vertex="1" parent="1">
          <mxGeometry x="771" y="250.5" width="29" height="29" as="geometry" />
        </mxCell>
        <mxCell id="AzC5nxEhTgzPdBHv2DmU-38" value="ECR" style="text;html=1;align=center;verticalAlign=middle;whiteSpace=wrap;rounded=0;" vertex="1" parent="1">
          <mxGeometry x="760" y="279.5" width="51" height="20" as="geometry" />
        </mxCell>
        <mxCell id="AzC5nxEhTgzPdBHv2DmU-39" value="" style="sketch=0;points=[[0,0,0],[0.25,0,0],[0.5,0,0],[0.75,0,0],[1,0,0],[0,1,0],[0.25,1,0],[0.5,1,0],[0.75,1,0],[1,1,0],[0,0.25,0],[0,0.5,0],[0,0.75,0],[1,0.25,0],[1,0.5,0],[1,0.75,0]];outlineConnect=0;fontColor=#232F3E;fillColor=#ED7100;strokeColor=#ffffff;dashed=0;verticalLabelPosition=bottom;verticalAlign=top;align=center;html=1;fontSize=12;fontStyle=0;aspect=fixed;shape=mxgraph.aws4.resourceIcon;resIcon=mxgraph.aws4.ecr;" vertex="1" parent="1">
          <mxGeometry x="771" y="201.5" width="29" height="29" as="geometry" />
        </mxCell>
        <mxCell id="AzC5nxEhTgzPdBHv2DmU-40" value="ECR" style="text;html=1;align=center;verticalAlign=middle;whiteSpace=wrap;rounded=0;" vertex="1" parent="1">
          <mxGeometry x="760" y="230.5" width="51" height="20" as="geometry" />
        </mxCell>
        <mxCell id="AzC5nxEhTgzPdBHv2DmU-43" value="" style="sketch=0;points=[[0,0,0],[0.25,0,0],[0.5,0,0],[0.75,0,0],[1,0,0],[0,1,0],[0.25,1,0],[0.5,1,0],[0.75,1,0],[1,1,0],[0,0.25,0],[0,0.5,0],[0,0.75,0],[1,0.25,0],[1,0.5,0],[1,0.75,0]];outlineConnect=0;fontColor=#232F3E;fillColor=#ED7100;strokeColor=#ffffff;dashed=0;verticalLabelPosition=bottom;verticalAlign=top;align=center;html=1;fontSize=12;fontStyle=0;aspect=fixed;shape=mxgraph.aws4.resourceIcon;resIcon=mxgraph.aws4.ecs;" vertex="1" parent="1">
          <mxGeometry x="880.5" y="200.5" width="31" height="31" as="geometry" />
        </mxCell>
        <mxCell id="AzC5nxEhTgzPdBHv2DmU-44" value="ECS" style="text;html=1;align=center;verticalAlign=middle;whiteSpace=wrap;rounded=0;" vertex="1" parent="1">
          <mxGeometry x="875.5" y="230.5" width="41" height="19" as="geometry" />
        </mxCell>
        <mxCell id="AzC5nxEhTgzPdBHv2DmU-45" value="" style="sketch=0;points=[[0,0,0],[0.25,0,0],[0.5,0,0],[0.75,0,0],[1,0,0],[0,1,0],[0.25,1,0],[0.5,1,0],[0.75,1,0],[1,1,0],[0,0.25,0],[0,0.5,0],[0,0.75,0],[1,0.25,0],[1,0.5,0],[1,0.75,0]];outlineConnect=0;fontColor=#232F3E;fillColor=#ED7100;strokeColor=#ffffff;dashed=0;verticalLabelPosition=bottom;verticalAlign=top;align=center;html=1;fontSize=12;fontStyle=0;aspect=fixed;shape=mxgraph.aws4.resourceIcon;resIcon=mxgraph.aws4.ecs;" vertex="1" parent="1">
          <mxGeometry x="880.5" y="249.5" width="31" height="31" as="geometry" />
        </mxCell>
        <mxCell id="AzC5nxEhTgzPdBHv2DmU-46" value="ECS" style="text;html=1;align=center;verticalAlign=middle;whiteSpace=wrap;rounded=0;" vertex="1" parent="1">
          <mxGeometry x="875.5" y="279.5" width="41" height="19" as="geometry" />
        </mxCell>
        <mxCell id="AzC5nxEhTgzPdBHv2DmU-47" value="" style="endArrow=classic;html=1;rounded=0;exitX=1;exitY=0.5;exitDx=0;exitDy=0;exitPerimeter=0;entryX=0;entryY=0.5;entryDx=0;entryDy=0;entryPerimeter=0;" edge="1" parent="1" source="AzC5nxEhTgzPdBHv2DmU-31" target="AzC5nxEhTgzPdBHv2DmU-22">
          <mxGeometry width="50" height="50" relative="1" as="geometry">
            <mxPoint x="817.5" y="199" as="sourcePoint" />
            <mxPoint x="867.5" y="149" as="targetPoint" />
          </mxGeometry>
        </mxCell>
        <mxCell id="AzC5nxEhTgzPdBHv2DmU-48" value="" style="endArrow=classic;html=1;rounded=0;exitX=1;exitY=0.5;exitDx=0;exitDy=0;exitPerimeter=0;entryX=0;entryY=0.5;entryDx=0;entryDy=0;entryPerimeter=0;" edge="1" parent="1" source="AzC5nxEhTgzPdBHv2DmU-37" target="AzC5nxEhTgzPdBHv2DmU-45">
          <mxGeometry width="50" height="50" relative="1" as="geometry">
            <mxPoint x="899" y="269.5" as="sourcePoint" />
            <mxPoint x="739" y="249.5" as="targetPoint" />
          </mxGeometry>
        </mxCell>
        <mxCell id="AzC5nxEhTgzPdBHv2DmU-49" value="" style="endArrow=classic;html=1;rounded=0;exitX=1;exitY=0.5;exitDx=0;exitDy=0;exitPerimeter=0;entryX=0;entryY=0.5;entryDx=0;entryDy=0;entryPerimeter=0;" edge="1" parent="1" source="AzC5nxEhTgzPdBHv2DmU-39" target="AzC5nxEhTgzPdBHv2DmU-43">
          <mxGeometry width="50" height="50" relative="1" as="geometry">
            <mxPoint x="817.5" y="245.5" as="sourcePoint" />
            <mxPoint x="867.5" y="195.5" as="targetPoint" />
          </mxGeometry>
        </mxCell>
        <mxCell id="AzC5nxEhTgzPdBHv2DmU-86" value="" style="whiteSpace=wrap;html=1;aspect=fixed;" vertex="1" parent="1">
          <mxGeometry x="760" y="370.5" width="160" height="160" as="geometry" />
        </mxCell>
        <mxCell id="AzC5nxEhTgzPdBHv2DmU-87" value="" style="sketch=0;outlineConnect=0;fontColor=#232F3E;gradientColor=none;fillColor=#E7157B;strokeColor=none;dashed=0;verticalLabelPosition=bottom;verticalAlign=top;align=center;html=1;fontSize=12;fontStyle=0;aspect=fixed;pointerEvents=1;shape=mxgraph.aws4.organizations_account;" vertex="1" parent="1">
          <mxGeometry x="825.01" y="308.9" width="29.98" height="31.6" as="geometry" />
        </mxCell>
        <mxCell id="AzC5nxEhTgzPdBHv2DmU-88" value="QA Account" style="text;strokeColor=none;align=center;fillColor=none;html=1;verticalAlign=middle;whiteSpace=wrap;rounded=0;" vertex="1" parent="1">
          <mxGeometry x="817.5" y="340.5" width="45" height="20" as="geometry" />
        </mxCell>
        <mxCell id="AzC5nxEhTgzPdBHv2DmU-89" value="" style="sketch=0;points=[[0,0,0],[0.25,0,0],[0.5,0,0],[0.75,0,0],[1,0,0],[0,1,0],[0.25,1,0],[0.5,1,0],[0.75,1,0],[1,1,0],[0,0.25,0],[0,0.5,0],[0,0.75,0],[1,0.25,0],[1,0.5,0],[1,0.75,0]];outlineConnect=0;fontColor=#232F3E;fillColor=#ED7100;strokeColor=#ffffff;dashed=0;verticalLabelPosition=bottom;verticalAlign=top;align=center;html=1;fontSize=12;fontStyle=0;aspect=fixed;shape=mxgraph.aws4.resourceIcon;resIcon=mxgraph.aws4.ecs;" vertex="1" parent="1">
          <mxGeometry x="880.5" y="380.5" width="31" height="31" as="geometry" />
        </mxCell>
        <mxCell id="AzC5nxEhTgzPdBHv2DmU-90" value="ECS" style="text;html=1;align=center;verticalAlign=middle;whiteSpace=wrap;rounded=0;" vertex="1" parent="1">
          <mxGeometry x="875.5" y="410" width="41" height="19" as="geometry" />
        </mxCell>
        <mxCell id="AzC5nxEhTgzPdBHv2DmU-91" value="" style="sketch=0;points=[[0,0,0],[0.25,0,0],[0.5,0,0],[0.75,0,0],[1,0,0],[0,1,0],[0.25,1,0],[0.5,1,0],[0.75,1,0],[1,1,0],[0,0.25,0],[0,0.5,0],[0,0.75,0],[1,0.25,0],[1,0.5,0],[1,0.75,0]];outlineConnect=0;fontColor=#232F3E;fillColor=#ED7100;strokeColor=#ffffff;dashed=0;verticalLabelPosition=bottom;verticalAlign=top;align=center;html=1;fontSize=12;fontStyle=0;aspect=fixed;shape=mxgraph.aws4.resourceIcon;resIcon=mxgraph.aws4.ecr;" vertex="1" parent="1">
          <mxGeometry x="771" y="380.5" width="29" height="29" as="geometry" />
        </mxCell>
        <mxCell id="AzC5nxEhTgzPdBHv2DmU-92" value="ECR" style="text;html=1;align=center;verticalAlign=middle;whiteSpace=wrap;rounded=0;" vertex="1" parent="1">
          <mxGeometry x="760" y="409.5" width="51" height="20" as="geometry" />
        </mxCell>
        <mxCell id="AzC5nxEhTgzPdBHv2DmU-93" value="" style="sketch=0;points=[[0,0,0],[0.25,0,0],[0.5,0,0],[0.75,0,0],[1,0,0],[0,1,0],[0.25,1,0],[0.5,1,0],[0.75,1,0],[1,1,0],[0,0.25,0],[0,0.5,0],[0,0.75,0],[1,0.25,0],[1,0.5,0],[1,0.75,0]];outlineConnect=0;fontColor=#232F3E;fillColor=#ED7100;strokeColor=#ffffff;dashed=0;verticalLabelPosition=bottom;verticalAlign=top;align=center;html=1;fontSize=12;fontStyle=0;aspect=fixed;shape=mxgraph.aws4.resourceIcon;resIcon=mxgraph.aws4.ecr;" vertex="1" parent="1">
          <mxGeometry x="771" y="480.5" width="29" height="29" as="geometry" />
        </mxCell>
        <mxCell id="AzC5nxEhTgzPdBHv2DmU-94" value="ECR" style="text;html=1;align=center;verticalAlign=middle;whiteSpace=wrap;rounded=0;" vertex="1" parent="1">
          <mxGeometry x="760" y="509.5" width="51" height="20" as="geometry" />
        </mxCell>
        <mxCell id="AzC5nxEhTgzPdBHv2DmU-95" value="" style="sketch=0;points=[[0,0,0],[0.25,0,0],[0.5,0,0],[0.75,0,0],[1,0,0],[0,1,0],[0.25,1,0],[0.5,1,0],[0.75,1,0],[1,1,0],[0,0.25,0],[0,0.5,0],[0,0.75,0],[1,0.25,0],[1,0.5,0],[1,0.75,0]];outlineConnect=0;fontColor=#232F3E;fillColor=#ED7100;strokeColor=#ffffff;dashed=0;verticalLabelPosition=bottom;verticalAlign=top;align=center;html=1;fontSize=12;fontStyle=0;aspect=fixed;shape=mxgraph.aws4.resourceIcon;resIcon=mxgraph.aws4.ecr;" vertex="1" parent="1">
          <mxGeometry x="771" y="431.5" width="29" height="29" as="geometry" />
        </mxCell>
        <mxCell id="AzC5nxEhTgzPdBHv2DmU-96" value="ECR" style="text;html=1;align=center;verticalAlign=middle;whiteSpace=wrap;rounded=0;" vertex="1" parent="1">
          <mxGeometry x="760" y="460.5" width="51" height="20" as="geometry" />
        </mxCell>
        <mxCell id="AzC5nxEhTgzPdBHv2DmU-97" value="" style="sketch=0;points=[[0,0,0],[0.25,0,0],[0.5,0,0],[0.75,0,0],[1,0,0],[0,1,0],[0.25,1,0],[0.5,1,0],[0.75,1,0],[1,1,0],[0,0.25,0],[0,0.5,0],[0,0.75,0],[1,0.25,0],[1,0.5,0],[1,0.75,0]];outlineConnect=0;fontColor=#232F3E;fillColor=#ED7100;strokeColor=#ffffff;dashed=0;verticalLabelPosition=bottom;verticalAlign=top;align=center;html=1;fontSize=12;fontStyle=0;aspect=fixed;shape=mxgraph.aws4.resourceIcon;resIcon=mxgraph.aws4.ecs;" vertex="1" parent="1">
          <mxGeometry x="880.5" y="430.5" width="31" height="31" as="geometry" />
        </mxCell>
        <mxCell id="AzC5nxEhTgzPdBHv2DmU-98" value="ECS" style="text;html=1;align=center;verticalAlign=middle;whiteSpace=wrap;rounded=0;" vertex="1" parent="1">
          <mxGeometry x="875.5" y="460.5" width="41" height="19" as="geometry" />
        </mxCell>
        <mxCell id="AzC5nxEhTgzPdBHv2DmU-99" value="" style="sketch=0;points=[[0,0,0],[0.25,0,0],[0.5,0,0],[0.75,0,0],[1,0,0],[0,1,0],[0.25,1,0],[0.5,1,0],[0.75,1,0],[1,1,0],[0,0.25,0],[0,0.5,0],[0,0.75,0],[1,0.25,0],[1,0.5,0],[1,0.75,0]];outlineConnect=0;fontColor=#232F3E;fillColor=#ED7100;strokeColor=#ffffff;dashed=0;verticalLabelPosition=bottom;verticalAlign=top;align=center;html=1;fontSize=12;fontStyle=0;aspect=fixed;shape=mxgraph.aws4.resourceIcon;resIcon=mxgraph.aws4.ecs;" vertex="1" parent="1">
          <mxGeometry x="880.5" y="479.5" width="31" height="31" as="geometry" />
        </mxCell>
        <mxCell id="AzC5nxEhTgzPdBHv2DmU-100" value="ECS" style="text;html=1;align=center;verticalAlign=middle;whiteSpace=wrap;rounded=0;" vertex="1" parent="1">
          <mxGeometry x="875.5" y="509.5" width="41" height="19" as="geometry" />
        </mxCell>
        <mxCell id="AzC5nxEhTgzPdBHv2DmU-101" value="" style="endArrow=classic;html=1;rounded=0;exitX=1;exitY=0.5;exitDx=0;exitDy=0;exitPerimeter=0;entryX=0;entryY=0.5;entryDx=0;entryDy=0;entryPerimeter=0;" edge="1" parent="1" source="AzC5nxEhTgzPdBHv2DmU-91" target="AzC5nxEhTgzPdBHv2DmU-89">
          <mxGeometry width="50" height="50" relative="1" as="geometry">
            <mxPoint x="817.5" y="429" as="sourcePoint" />
            <mxPoint x="867.5" y="379" as="targetPoint" />
          </mxGeometry>
        </mxCell>
        <mxCell id="AzC5nxEhTgzPdBHv2DmU-102" value="" style="endArrow=classic;html=1;rounded=0;exitX=1;exitY=0.5;exitDx=0;exitDy=0;exitPerimeter=0;entryX=0;entryY=0.5;entryDx=0;entryDy=0;entryPerimeter=0;" edge="1" parent="1" source="AzC5nxEhTgzPdBHv2DmU-93" target="AzC5nxEhTgzPdBHv2DmU-99">
          <mxGeometry width="50" height="50" relative="1" as="geometry">
            <mxPoint x="899" y="499.5" as="sourcePoint" />
            <mxPoint x="739" y="479.5" as="targetPoint" />
          </mxGeometry>
        </mxCell>
        <mxCell id="AzC5nxEhTgzPdBHv2DmU-103" value="" style="endArrow=classic;html=1;rounded=0;exitX=1;exitY=0.5;exitDx=0;exitDy=0;exitPerimeter=0;entryX=0;entryY=0.5;entryDx=0;entryDy=0;entryPerimeter=0;" edge="1" parent="1" source="AzC5nxEhTgzPdBHv2DmU-95" target="AzC5nxEhTgzPdBHv2DmU-97">
          <mxGeometry width="50" height="50" relative="1" as="geometry">
            <mxPoint x="817.5" y="475.5" as="sourcePoint" />
            <mxPoint x="867.5" y="425.5" as="targetPoint" />
          </mxGeometry>
        </mxCell>
        <mxCell id="AzC5nxEhTgzPdBHv2DmU-104" value="" style="whiteSpace=wrap;html=1;aspect=fixed;" vertex="1" parent="1">
          <mxGeometry x="760" y="602.1" width="160" height="160" as="geometry" />
        </mxCell>
        <mxCell id="AzC5nxEhTgzPdBHv2DmU-105" value="" style="sketch=0;outlineConnect=0;fontColor=#232F3E;gradientColor=none;fillColor=#E7157B;strokeColor=none;dashed=0;verticalLabelPosition=bottom;verticalAlign=top;align=center;html=1;fontSize=12;fontStyle=0;aspect=fixed;pointerEvents=1;shape=mxgraph.aws4.organizations_account;" vertex="1" parent="1">
          <mxGeometry x="825.01" y="540.5" width="29.98" height="31.6" as="geometry" />
        </mxCell>
        <mxCell id="AzC5nxEhTgzPdBHv2DmU-106" value="Prod Account" style="text;strokeColor=none;align=center;fillColor=none;html=1;verticalAlign=middle;whiteSpace=wrap;rounded=0;" vertex="1" parent="1">
          <mxGeometry x="817.5" y="572.1" width="45" height="20" as="geometry" />
        </mxCell>
        <mxCell id="AzC5nxEhTgzPdBHv2DmU-107" value="" style="sketch=0;points=[[0,0,0],[0.25,0,0],[0.5,0,0],[0.75,0,0],[1,0,0],[0,1,0],[0.25,1,0],[0.5,1,0],[0.75,1,0],[1,1,0],[0,0.25,0],[0,0.5,0],[0,0.75,0],[1,0.25,0],[1,0.5,0],[1,0.75,0]];outlineConnect=0;fontColor=#232F3E;fillColor=#ED7100;strokeColor=#ffffff;dashed=0;verticalLabelPosition=bottom;verticalAlign=top;align=center;html=1;fontSize=12;fontStyle=0;aspect=fixed;shape=mxgraph.aws4.resourceIcon;resIcon=mxgraph.aws4.ecs;" vertex="1" parent="1">
          <mxGeometry x="880.5" y="612.1" width="31" height="31" as="geometry" />
        </mxCell>
        <mxCell id="AzC5nxEhTgzPdBHv2DmU-108" value="ECS" style="text;html=1;align=center;verticalAlign=middle;whiteSpace=wrap;rounded=0;" vertex="1" parent="1">
          <mxGeometry x="875.5" y="641.6" width="41" height="19" as="geometry" />
        </mxCell>
        <mxCell id="AzC5nxEhTgzPdBHv2DmU-109" value="" style="sketch=0;points=[[0,0,0],[0.25,0,0],[0.5,0,0],[0.75,0,0],[1,0,0],[0,1,0],[0.25,1,0],[0.5,1,0],[0.75,1,0],[1,1,0],[0,0.25,0],[0,0.5,0],[0,0.75,0],[1,0.25,0],[1,0.5,0],[1,0.75,0]];outlineConnect=0;fontColor=#232F3E;fillColor=#ED7100;strokeColor=#ffffff;dashed=0;verticalLabelPosition=bottom;verticalAlign=top;align=center;html=1;fontSize=12;fontStyle=0;aspect=fixed;shape=mxgraph.aws4.resourceIcon;resIcon=mxgraph.aws4.ecr;" vertex="1" parent="1">
          <mxGeometry x="771" y="612.1" width="29" height="29" as="geometry" />
        </mxCell>
        <mxCell id="AzC5nxEhTgzPdBHv2DmU-110" value="ECR" style="text;html=1;align=center;verticalAlign=middle;whiteSpace=wrap;rounded=0;" vertex="1" parent="1">
          <mxGeometry x="760" y="641.1" width="51" height="20" as="geometry" />
        </mxCell>
        <mxCell id="AzC5nxEhTgzPdBHv2DmU-111" value="" style="sketch=0;points=[[0,0,0],[0.25,0,0],[0.5,0,0],[0.75,0,0],[1,0,0],[0,1,0],[0.25,1,0],[0.5,1,0],[0.75,1,0],[1,1,0],[0,0.25,0],[0,0.5,0],[0,0.75,0],[1,0.25,0],[1,0.5,0],[1,0.75,0]];outlineConnect=0;fontColor=#232F3E;fillColor=#ED7100;strokeColor=#ffffff;dashed=0;verticalLabelPosition=bottom;verticalAlign=top;align=center;html=1;fontSize=12;fontStyle=0;aspect=fixed;shape=mxgraph.aws4.resourceIcon;resIcon=mxgraph.aws4.ecr;" vertex="1" parent="1">
          <mxGeometry x="771" y="712.1" width="29" height="29" as="geometry" />
        </mxCell>
        <mxCell id="AzC5nxEhTgzPdBHv2DmU-112" value="ECR" style="text;html=1;align=center;verticalAlign=middle;whiteSpace=wrap;rounded=0;" vertex="1" parent="1">
          <mxGeometry x="760" y="741.1" width="51" height="20" as="geometry" />
        </mxCell>
        <mxCell id="AzC5nxEhTgzPdBHv2DmU-113" value="" style="sketch=0;points=[[0,0,0],[0.25,0,0],[0.5,0,0],[0.75,0,0],[1,0,0],[0,1,0],[0.25,1,0],[0.5,1,0],[0.75,1,0],[1,1,0],[0,0.25,0],[0,0.5,0],[0,0.75,0],[1,0.25,0],[1,0.5,0],[1,0.75,0]];outlineConnect=0;fontColor=#232F3E;fillColor=#ED7100;strokeColor=#ffffff;dashed=0;verticalLabelPosition=bottom;verticalAlign=top;align=center;html=1;fontSize=12;fontStyle=0;aspect=fixed;shape=mxgraph.aws4.resourceIcon;resIcon=mxgraph.aws4.ecr;" vertex="1" parent="1">
          <mxGeometry x="771" y="663.1" width="29" height="29" as="geometry" />
        </mxCell>
        <mxCell id="AzC5nxEhTgzPdBHv2DmU-114" value="ECR" style="text;html=1;align=center;verticalAlign=middle;whiteSpace=wrap;rounded=0;" vertex="1" parent="1">
          <mxGeometry x="760" y="692.1" width="51" height="20" as="geometry" />
        </mxCell>
        <mxCell id="AzC5nxEhTgzPdBHv2DmU-115" value="" style="sketch=0;points=[[0,0,0],[0.25,0,0],[0.5,0,0],[0.75,0,0],[1,0,0],[0,1,0],[0.25,1,0],[0.5,1,0],[0.75,1,0],[1,1,0],[0,0.25,0],[0,0.5,0],[0,0.75,0],[1,0.25,0],[1,0.5,0],[1,0.75,0]];outlineConnect=0;fontColor=#232F3E;fillColor=#ED7100;strokeColor=#ffffff;dashed=0;verticalLabelPosition=bottom;verticalAlign=top;align=center;html=1;fontSize=12;fontStyle=0;aspect=fixed;shape=mxgraph.aws4.resourceIcon;resIcon=mxgraph.aws4.ecs;" vertex="1" parent="1">
          <mxGeometry x="880.5" y="662.1" width="31" height="31" as="geometry" />
        </mxCell>
        <mxCell id="AzC5nxEhTgzPdBHv2DmU-116" value="ECS" style="text;html=1;align=center;verticalAlign=middle;whiteSpace=wrap;rounded=0;" vertex="1" parent="1">
          <mxGeometry x="875.5" y="692.1" width="41" height="19" as="geometry" />
        </mxCell>
        <mxCell id="AzC5nxEhTgzPdBHv2DmU-117" value="" style="sketch=0;points=[[0,0,0],[0.25,0,0],[0.5,0,0],[0.75,0,0],[1,0,0],[0,1,0],[0.25,1,0],[0.5,1,0],[0.75,1,0],[1,1,0],[0,0.25,0],[0,0.5,0],[0,0.75,0],[1,0.25,0],[1,0.5,0],[1,0.75,0]];outlineConnect=0;fontColor=#232F3E;fillColor=#ED7100;strokeColor=#ffffff;dashed=0;verticalLabelPosition=bottom;verticalAlign=top;align=center;html=1;fontSize=12;fontStyle=0;aspect=fixed;shape=mxgraph.aws4.resourceIcon;resIcon=mxgraph.aws4.ecs;" vertex="1" parent="1">
          <mxGeometry x="880.5" y="711.1" width="31" height="31" as="geometry" />
        </mxCell>
        <mxCell id="AzC5nxEhTgzPdBHv2DmU-118" value="ECS" style="text;html=1;align=center;verticalAlign=middle;whiteSpace=wrap;rounded=0;" vertex="1" parent="1">
          <mxGeometry x="875.5" y="741.1" width="41" height="19" as="geometry" />
        </mxCell>
        <mxCell id="AzC5nxEhTgzPdBHv2DmU-119" value="" style="endArrow=classic;html=1;rounded=0;exitX=1;exitY=0.5;exitDx=0;exitDy=0;exitPerimeter=0;entryX=0;entryY=0.5;entryDx=0;entryDy=0;entryPerimeter=0;" edge="1" parent="1" source="AzC5nxEhTgzPdBHv2DmU-109" target="AzC5nxEhTgzPdBHv2DmU-107">
          <mxGeometry width="50" height="50" relative="1" as="geometry">
            <mxPoint x="817.5" y="660.6" as="sourcePoint" />
            <mxPoint x="867.5" y="610.6" as="targetPoint" />
          </mxGeometry>
        </mxCell>
        <mxCell id="AzC5nxEhTgzPdBHv2DmU-120" value="" style="endArrow=classic;html=1;rounded=0;exitX=1;exitY=0.5;exitDx=0;exitDy=0;exitPerimeter=0;entryX=0;entryY=0.5;entryDx=0;entryDy=0;entryPerimeter=0;" edge="1" parent="1" source="AzC5nxEhTgzPdBHv2DmU-111" target="AzC5nxEhTgzPdBHv2DmU-117">
          <mxGeometry width="50" height="50" relative="1" as="geometry">
            <mxPoint x="899" y="731.1" as="sourcePoint" />
            <mxPoint x="739" y="711.1" as="targetPoint" />
          </mxGeometry>
        </mxCell>
        <mxCell id="AzC5nxEhTgzPdBHv2DmU-121" value="" style="endArrow=classic;html=1;rounded=0;exitX=1;exitY=0.5;exitDx=0;exitDy=0;exitPerimeter=0;entryX=0;entryY=0.5;entryDx=0;entryDy=0;entryPerimeter=0;" edge="1" parent="1" source="AzC5nxEhTgzPdBHv2DmU-113" target="AzC5nxEhTgzPdBHv2DmU-115">
          <mxGeometry width="50" height="50" relative="1" as="geometry">
            <mxPoint x="817.5" y="707.1" as="sourcePoint" />
            <mxPoint x="867.5" y="657.1" as="targetPoint" />
          </mxGeometry>
        </mxCell>
        <mxCell id="AzC5nxEhTgzPdBHv2DmU-122" value="" style="outlineConnect=0;dashed=0;verticalLabelPosition=bottom;verticalAlign=top;align=center;html=1;shape=mxgraph.aws3.door_lock;fillColor=#5294CF;gradientColor=none;" vertex="1" parent="1">
          <mxGeometry x="560" y="196.25" width="39.5" height="39.5" as="geometry" />
        </mxCell>
        <mxCell id="AzC5nxEhTgzPdBHv2DmU-123" value="" style="outlineConnect=0;dashed=0;verticalLabelPosition=bottom;verticalAlign=top;align=center;html=1;shape=mxgraph.aws3.door_lock;fillColor=#5294CF;gradientColor=none;" vertex="1" parent="1">
          <mxGeometry x="560" y="430.75" width="39.5" height="39.5" as="geometry" />
        </mxCell>
        <mxCell id="AzC5nxEhTgzPdBHv2DmU-124" value="" style="outlineConnect=0;dashed=0;verticalLabelPosition=bottom;verticalAlign=top;align=center;html=1;shape=mxgraph.aws3.door_lock;fillColor=#5294CF;gradientColor=none;" vertex="1" parent="1">
          <mxGeometry x="560" y="657.85" width="39.5" height="39.5" as="geometry" />
        </mxCell>
        <mxCell id="AzC5nxEhTgzPdBHv2DmU-125" value="" style="image;aspect=fixed;perimeter=ellipsePerimeter;html=1;align=center;shadow=0;dashed=0;spacingTop=3;image=img/lib/active_directory/key.svg;" vertex="1" parent="1">
          <mxGeometry x="500" y="199.5" width="50" height="37" as="geometry" />
        </mxCell>
        <mxCell id="AzC5nxEhTgzPdBHv2DmU-127" value="" style="image;aspect=fixed;perimeter=ellipsePerimeter;html=1;align=center;shadow=0;dashed=0;spacingTop=3;image=img/lib/active_directory/key.svg;" vertex="1" parent="1">
          <mxGeometry x="500" y="436" width="50" height="37" as="geometry" />
        </mxCell>
        <mxCell id="AzC5nxEhTgzPdBHv2DmU-128" value="" style="image;aspect=fixed;perimeter=ellipsePerimeter;html=1;align=center;shadow=0;dashed=0;spacingTop=3;image=img/lib/active_directory/key.svg;" vertex="1" parent="1">
          <mxGeometry x="500" y="663.6" width="50" height="37" as="geometry" />
        </mxCell>
        <mxCell id="AzC5nxEhTgzPdBHv2DmU-130" value="" style="verticalLabelPosition=bottom;html=1;verticalAlign=top;align=center;strokeColor=none;fillColor=#00BEF2;shape=mxgraph.azure.git_repository;" vertex="1" parent="1">
          <mxGeometry x="155" y="110.5" width="50" height="50" as="geometry" />
        </mxCell>
        <mxCell id="AzC5nxEhTgzPdBHv2DmU-132" style="edgeStyle=orthogonalEdgeStyle;rounded=0;orthogonalLoop=1;jettySize=auto;html=1;" edge="1" parent="1" source="AzC5nxEhTgzPdBHv2DmU-131">
          <mxGeometry relative="1" as="geometry">
            <mxPoint x="185" y="260" as="targetPoint" />
          </mxGeometry>
        </mxCell>
        <mxCell id="AzC5nxEhTgzPdBHv2DmU-131" value="Code Commit" style="text;html=1;align=center;verticalAlign=middle;whiteSpace=wrap;rounded=0;" vertex="1" parent="1">
          <mxGeometry x="155" y="166.25" width="60" height="30" as="geometry" />
        </mxCell>
        <mxCell id="AzC5nxEhTgzPdBHv2DmU-134" value="cross-account-role" style="text;html=1;align=center;verticalAlign=middle;resizable=0;points=[];autosize=1;strokeColor=none;fillColor=none;" vertex="1" parent="1">
          <mxGeometry x="440" y="166.25" width="120" height="30" as="geometry" />
        </mxCell>
        <mxCell id="AzC5nxEhTgzPdBHv2DmU-135" value="cross-account-role" style="text;html=1;align=center;verticalAlign=middle;resizable=0;points=[];autosize=1;strokeColor=none;fillColor=none;" vertex="1" parent="1">
          <mxGeometry x="440" y="406" width="120" height="30" as="geometry" />
        </mxCell>
        <mxCell id="AzC5nxEhTgzPdBHv2DmU-136" value="cross-account-role" style="text;html=1;align=center;verticalAlign=middle;resizable=0;points=[];autosize=1;strokeColor=none;fillColor=none;" vertex="1" parent="1">
          <mxGeometry x="440" y="630.6" width="120" height="30" as="geometry" />
        </mxCell>
        <mxCell id="AzC5nxEhTgzPdBHv2DmU-139" value="Specified permissions for cross account deployment" style="rounded=0;whiteSpace=wrap;html=1;" vertex="1" parent="1">
          <mxGeometry x="599.5" y="194.79999999999995" width="160.5" height="42.4" as="geometry" />
        </mxCell>
        <mxCell id="AzC5nxEhTgzPdBHv2DmU-144" value="" style="endArrow=classic;html=1;rounded=0;exitX=1.017;exitY=0.397;exitDx=0;exitDy=0;exitPerimeter=0;" edge="1" parent="1" source="AzC5nxEhTgzPdBHv2DmU-3">
          <mxGeometry width="50" height="50" relative="1" as="geometry">
            <mxPoint x="390" y="440" as="sourcePoint" />
            <mxPoint x="490" y="457" as="targetPoint" />
          </mxGeometry>
        </mxCell>
        <mxCell id="AzC5nxEhTgzPdBHv2DmU-151" value="Deployment" style="edgeLabel;html=1;align=center;verticalAlign=middle;resizable=0;points=[];" vertex="1" connectable="0" parent="AzC5nxEhTgzPdBHv2DmU-144">
          <mxGeometry x="-0.5028" y="-1" relative="1" as="geometry">
            <mxPoint as="offset" />
          </mxGeometry>
        </mxCell>
        <mxCell id="AzC5nxEhTgzPdBHv2DmU-147" value="" style="endArrow=none;html=1;rounded=0;" edge="1" parent="1">
          <mxGeometry width="50" height="50" relative="1" as="geometry">
            <mxPoint x="400" y="460" as="sourcePoint" />
            <mxPoint x="400" y="210" as="targetPoint" />
          </mxGeometry>
        </mxCell>
        <mxCell id="AzC5nxEhTgzPdBHv2DmU-148" value="" style="endArrow=none;html=1;rounded=0;" edge="1" parent="1">
          <mxGeometry width="50" height="50" relative="1" as="geometry">
            <mxPoint x="400" y="680" as="sourcePoint" />
            <mxPoint x="400" y="457.1" as="targetPoint" />
          </mxGeometry>
        </mxCell>
        <mxCell id="AzC5nxEhTgzPdBHv2DmU-149" value="" style="endArrow=classic;html=1;rounded=0;" edge="1" parent="1">
          <mxGeometry width="50" height="50" relative="1" as="geometry">
            <mxPoint x="400" y="680" as="sourcePoint" />
            <mxPoint x="490" y="680" as="targetPoint" />
          </mxGeometry>
        </mxCell>
        <mxCell id="AzC5nxEhTgzPdBHv2DmU-150" value="" style="endArrow=classic;html=1;rounded=0;" edge="1" parent="1">
          <mxGeometry width="50" height="50" relative="1" as="geometry">
            <mxPoint x="400" y="210" as="sourcePoint" />
            <mxPoint x="490" y="210" as="targetPoint" />
          </mxGeometry>
        </mxCell>
        <mxCell id="AzC5nxEhTgzPdBHv2DmU-153" value="Specified permissions for cross account deployment" style="rounded=0;whiteSpace=wrap;html=1;" vertex="1" parent="1">
          <mxGeometry x="599.5" y="428.99999999999994" width="160.5" height="42.4" as="geometry" />
        </mxCell>
        <mxCell id="AzC5nxEhTgzPdBHv2DmU-154" value="Specified permissions for cross account deployment" style="rounded=0;whiteSpace=wrap;html=1;" vertex="1" parent="1">
          <mxGeometry x="599.5" y="657.8499999999999" width="160.5" height="42.4" as="geometry" />
        </mxCell>
      </root>
    </mxGraphModel>
  </diagram>
</mxfile>
